# xmcd
#
# Track frame offsets:
#	150
#	16841
#	29748
#	40926
#	51981
#	65425
#	77574
#	90874
#	104123
#	117298
#
# Disc length: 1787 seconds
# Revision: 0
# Processed by: cddbd v1.5.2PL0 Copyright (c) Steve Scherf et al.
# Submitted via: dBpowerAMP V12.0
#
DISCID=7d06f90a
DTITLE=Jerry Lee Lewis - Killer Country
DYEAR=1980
DGENRE=Country
TTITLE0=Folsom Prison Blues
TTITLE1=I'd Do It All Again
TTITLE2=Jukebox Junky
TTITLE3=Too Weak To Fight
TTITLE4=Late Night Lovin' Man
TTITLE5=Change Places With Me
TTITLE6=Let Me On
TTITLE7=Thirty-Nine And Holding
TTITLE8=Mama, This One's For You
TTITLE9=Over The Rainbow
EXTD=
EXTT0=
EXTT1=
EXTT2=
EXTT3=
EXTT4=
EXTT5=
EXTT6=
EXTT7=
EXTT8=
EXTT9=
PLAYORDER=
